<mxfile host="app.diagrams.net" modified="2024-02-01T12:19:05.275Z" agent="Mozilla/5.0 (Windows NT 10.0; Win64; x64) AppleWebKit/537.36 (KHTML, like Gecko) Chrome/120.0.0.0 Safari/537.36" etag="pKXWM-MqN2Ktho4fBBVt" version="22.1.21" type="device">
  <diagram name="1 oldal" id="lJfBmLQwx1s9EJp2PIZj">
    <mxGraphModel dx="1188" dy="674" grid="1" gridSize="10" guides="1" tooltips="1" connect="1" arrows="1" fold="1" page="1" pageScale="1" pageWidth="827" pageHeight="1169" math="0" shadow="0">
      <root>
        <mxCell id="0" />
        <mxCell id="1" parent="0" />
        <mxCell id="1L38nvM-ssfPp6MPhMyn-5" value="[pipline]" style="rounded=1;whiteSpace=wrap;html=1;fillColor=#fff2cc;strokeColor=#d6b656;verticalAlign=top;" parent="1" vertex="1">
          <mxGeometry x="90" y="50" width="280" height="700" as="geometry" />
        </mxCell>
        <mxCell id="1L38nvM-ssfPp6MPhMyn-28" style="edgeStyle=orthogonalEdgeStyle;rounded=1;orthogonalLoop=1;jettySize=auto;html=1;exitX=0;exitY=0.5;exitDx=0;exitDy=0;entryX=0;entryY=0.5;entryDx=0;entryDy=0;curved=0;strokeColor=#FF0000;strokeWidth=2;" parent="1" source="1L38nvM-ssfPp6MPhMyn-19" target="1L38nvM-ssfPp6MPhMyn-20" edge="1">
          <mxGeometry relative="1" as="geometry" />
        </mxCell>
        <mxCell id="1L38nvM-ssfPp6MPhMyn-22" value="p2&lt;br&gt;[executor]" style="rounded=1;whiteSpace=wrap;html=1;fillColor=#dae8fc;strokeColor=#6c8ebf;verticalAlign=top;" parent="1" vertex="1">
          <mxGeometry x="140" y="560" width="180" height="110" as="geometry" />
        </mxCell>
        <mxCell id="1L38nvM-ssfPp6MPhMyn-21" value="p1&lt;br&gt;[executor]" style="rounded=1;whiteSpace=wrap;html=1;fillColor=#dae8fc;strokeColor=#6c8ebf;verticalAlign=top;" parent="1" vertex="1">
          <mxGeometry x="140" y="360" width="180" height="110" as="geometry" />
        </mxCell>
        <mxCell id="1L38nvM-ssfPp6MPhMyn-20" value="s1&lt;br&gt;[executor]" style="rounded=1;whiteSpace=wrap;html=1;fillColor=#dae8fc;strokeColor=#6c8ebf;verticalAlign=top;align=center;" parent="1" vertex="1">
          <mxGeometry x="140" y="80" width="180" height="190" as="geometry" />
        </mxCell>
        <mxCell id="2gO4b6BWbxsjLLJZcE6m-3" style="edgeStyle=orthogonalEdgeStyle;rounded=0;orthogonalLoop=1;jettySize=auto;html=1;exitX=0.5;exitY=1;exitDx=0;exitDy=0;" edge="1" parent="1" source="1L38nvM-ssfPp6MPhMyn-1" target="1L38nvM-ssfPp6MPhMyn-17">
          <mxGeometry relative="1" as="geometry" />
        </mxCell>
        <mxCell id="1L38nvM-ssfPp6MPhMyn-1" value="filter()&lt;br&gt;[operator]" style="rounded=1;whiteSpace=wrap;html=1;fillColor=#ffe6cc;strokeColor=#d79b00;" parent="1" vertex="1">
          <mxGeometry x="170" y="200" width="120" height="60" as="geometry" />
        </mxCell>
        <mxCell id="2gO4b6BWbxsjLLJZcE6m-2" style="edgeStyle=orthogonalEdgeStyle;rounded=0;orthogonalLoop=1;jettySize=auto;html=1;exitX=0.5;exitY=1;exitDx=0;exitDy=0;entryX=0.5;entryY=0;entryDx=0;entryDy=0;" edge="1" parent="1" source="1L38nvM-ssfPp6MPhMyn-2" target="1L38nvM-ssfPp6MPhMyn-1">
          <mxGeometry relative="1" as="geometry" />
        </mxCell>
        <mxCell id="1L38nvM-ssfPp6MPhMyn-2" value="fromIterable()&lt;br&gt;[source]" style="rounded=1;whiteSpace=wrap;html=1;fillColor=#ffe6cc;strokeColor=#d79b00;" parent="1" vertex="1">
          <mxGeometry x="170" y="120" width="120" height="60" as="geometry" />
        </mxCell>
        <mxCell id="2gO4b6BWbxsjLLJZcE6m-5" style="edgeStyle=orthogonalEdgeStyle;rounded=0;orthogonalLoop=1;jettySize=auto;html=1;exitX=0.5;exitY=1;exitDx=0;exitDy=0;" edge="1" parent="1" source="1L38nvM-ssfPp6MPhMyn-3" target="1L38nvM-ssfPp6MPhMyn-18">
          <mxGeometry relative="1" as="geometry" />
        </mxCell>
        <mxCell id="1L38nvM-ssfPp6MPhMyn-3" value="map()&lt;br&gt;[operator]" style="rounded=1;whiteSpace=wrap;html=1;fillColor=#ffe6cc;strokeColor=#d79b00;" parent="1" vertex="1">
          <mxGeometry x="170" y="400" width="120" height="60" as="geometry" />
        </mxCell>
        <mxCell id="2gO4b6BWbxsjLLJZcE6m-7" style="edgeStyle=orthogonalEdgeStyle;rounded=0;orthogonalLoop=1;jettySize=auto;html=1;exitX=0.5;exitY=1;exitDx=0;exitDy=0;" edge="1" parent="1" source="1L38nvM-ssfPp6MPhMyn-4" target="1L38nvM-ssfPp6MPhMyn-19">
          <mxGeometry relative="1" as="geometry" />
        </mxCell>
        <mxCell id="1L38nvM-ssfPp6MPhMyn-4" value="map()&lt;br&gt;[operator]" style="rounded=1;whiteSpace=wrap;html=1;fillColor=#ffe6cc;strokeColor=#d79b00;" parent="1" vertex="1">
          <mxGeometry x="170" y="600" width="120" height="60" as="geometry" />
        </mxCell>
        <mxCell id="1L38nvM-ssfPp6MPhMyn-23" style="edgeStyle=orthogonalEdgeStyle;rounded=1;orthogonalLoop=1;jettySize=auto;html=1;exitX=1;exitY=0.5;exitDx=0;exitDy=0;entryX=1;entryY=0.5;entryDx=0;entryDy=0;curved=0;strokeColor=#FF0000;strokeWidth=2;" parent="1" source="1L38nvM-ssfPp6MPhMyn-17" target="1L38nvM-ssfPp6MPhMyn-21" edge="1">
          <mxGeometry relative="1" as="geometry" />
        </mxCell>
        <mxCell id="2gO4b6BWbxsjLLJZcE6m-11" style="edgeStyle=orthogonalEdgeStyle;rounded=0;orthogonalLoop=1;jettySize=auto;html=1;exitX=0.5;exitY=1;exitDx=0;exitDy=0;strokeColor=#B8B8B8;" edge="1" parent="1" source="1L38nvM-ssfPp6MPhMyn-17" target="1L38nvM-ssfPp6MPhMyn-3">
          <mxGeometry relative="1" as="geometry" />
        </mxCell>
        <mxCell id="1L38nvM-ssfPp6MPhMyn-17" value="publishOn(&quot;p1&quot;)&lt;br&gt;[operator]" style="rounded=1;whiteSpace=wrap;html=1;fillColor=#ffe6cc;strokeColor=#d79b00;" parent="1" vertex="1">
          <mxGeometry x="170" y="290" width="120" height="60" as="geometry" />
        </mxCell>
        <mxCell id="1L38nvM-ssfPp6MPhMyn-24" style="edgeStyle=orthogonalEdgeStyle;rounded=1;orthogonalLoop=1;jettySize=auto;html=1;exitX=1;exitY=0.5;exitDx=0;exitDy=0;entryX=1;entryY=0.5;entryDx=0;entryDy=0;curved=0;strokeColor=#FF0000;strokeWidth=2;" parent="1" source="1L38nvM-ssfPp6MPhMyn-18" target="1L38nvM-ssfPp6MPhMyn-22" edge="1">
          <mxGeometry relative="1" as="geometry" />
        </mxCell>
        <mxCell id="2gO4b6BWbxsjLLJZcE6m-12" style="edgeStyle=orthogonalEdgeStyle;rounded=0;orthogonalLoop=1;jettySize=auto;html=1;exitX=0.5;exitY=1;exitDx=0;exitDy=0;entryX=0.5;entryY=0;entryDx=0;entryDy=0;strokeColor=#B8B8B8;" edge="1" parent="1" source="1L38nvM-ssfPp6MPhMyn-18" target="1L38nvM-ssfPp6MPhMyn-4">
          <mxGeometry relative="1" as="geometry" />
        </mxCell>
        <mxCell id="1L38nvM-ssfPp6MPhMyn-18" value="publishOn(&quot;p2&quot;)&lt;br&gt;[operator]" style="rounded=1;whiteSpace=wrap;html=1;fillColor=#ffe6cc;strokeColor=#d79b00;" parent="1" vertex="1">
          <mxGeometry x="170" y="490" width="120" height="60" as="geometry" />
        </mxCell>
        <mxCell id="1L38nvM-ssfPp6MPhMyn-19" value="subscribeOn(&quot;s1&quot;)&lt;br&gt;[operator]" style="rounded=1;whiteSpace=wrap;html=1;fillColor=#ffe6cc;strokeColor=#d79b00;" parent="1" vertex="1">
          <mxGeometry x="170" y="680" width="120" height="60" as="geometry" />
        </mxCell>
      </root>
    </mxGraphModel>
  </diagram>
</mxfile>
